Coordinates
version=1
nRows=26
nColumns=38
inDegrees=no

Units are S.I. units (second, meters, Newtons, ...)
If the header above contains a line with 'inDegrees', this indicates whether rotational values are in degrees (yes) or radians (no).

endheader
time	pelvis_tilt	pelvis_list	pelvis_rotation	pelvis_tx	pelvis_ty	pelvis_tz	hip_flexion_r	hip_adduction_r	hip_rotation_r	knee_angle_r	ankle_angle_r	subtalar_angle_r	mtp_angle_r	hip_flexion_l	hip_adduction_l	hip_rotation_l	knee_angle_l	ankle_angle_l	subtalar_angle_l	mtp_angle_l	lumbar_extension	lumbar_bending	lumbar_rotation	arm_flex_r	arm_add_r	arm_rot_r	elbow_flex_r	pro_sup_r	wrist_flex_r	wrist_dev_r	arm_flex_l	arm_add_l	arm_rot_l	elbow_flex_l	pro_sup_l	wrist_flex_l	wrist_dev_l
0.43	-0.0219203	-0.0388028	0.073711	0.924325	0.978479	-0.304462	0.491404	0.0563685	-0.169673	-0.277681	0.0974482	-0.0365291	9.23335e-05	-0.314963	-0.0485288	-0.0431294	-0.660284	-0.411495	-0.0492981	0.000189407	-0.241005	0.0601366	-0.202548	-0.792978	-0.201512	-0.140352	1.78441	1.57106	0.0392753	-0.0202569	-0.11314	-0.457502	0.114828	2.25127	2.13648	-0.00485762	-0.00579529
0.44	-0.0117105	-0.0442401	0.0688282	0.926273	0.972169	-0.303199	0.494834	0.0603948	-0.184468	-0.348213	0.0502144	-0.0365291	9.23335e-05	-0.297019	-0.0695356	-0.0606903	-0.76672	-0.39205	-0.0492981	0.000189407	-0.248956	0.0675124	-0.180428	-0.795159	-0.206046	-0.148006	1.79663	1.55671	0.0392753	-0.0202569	-0.119759	-0.455983	0.110827	2.21918	2.13545	-0.00485762	-0.00579529
0.45	-0.00101473	-0.0521422	0.0617013	0.927764	0.96533	-0.301663	0.496273	0.0692101	-0.192365	-0.419939	0.0212699	-0.0365291	9.23335e-05	-0.276001	-0.0923763	-0.0782033	-0.871818	-0.374088	-0.0492981	0.000189407	-0.259075	0.0764129	-0.155486	-0.790429	-0.214144	-0.152051	1.80497	1.54427	0.0392753	-0.0202569	-0.128859	-0.453065	0.104922	2.18895	2.13608	-0.00485762	-0.00579529
0.46	0.0101674	-0.0624009	0.0524325	0.928825	0.958355	-0.299934	0.495564	0.0826482	-0.193573	-0.492462	0.0104424	-0.0365291	9.23335e-05	-0.251853	-0.116828	-0.0953743	-0.975451	-0.357503	-0.0492981	0.000189407	-0.271306	0.0867459	-0.127898	-0.778748	-0.225791	-0.152435	1.80943	1.53391	0.0392753	-0.0202569	-0.14047	-0.448742	0.0970912	2.16065	2.1384	-0.00485762	-0.00579529
0.47	0.0217363	-0.0746845	0.0413506	0.929461	0.951698	-0.298076	0.492284	0.100161	-0.188729	-0.564662	0.0170061	-0.0365291	9.23335e-05	-0.224388	-0.14219	-0.111371	-1.07725	-0.341979	-0.0492981	0.000189407	-0.285462	0.0982144	-0.0982089	-0.760036	-0.240919	-0.149025	1.81002	1.52607	0.0392753	-0.0202569	-0.154666	-0.443001	0.0872854	2.13445	2.14249	-0.00485762	-0.00579529
0.48	0.0334522	-0.0883372	0.0290839	0.929632	0.945599	-0.296164	0.485774	0.120689	-0.178954	-0.63464	0.0392969	-0.0365291	9.23335e-05	-0.193231	-0.167156	-0.124786	-1.17656	-0.327	-0.0492981	0.000189407	-0.301143	0.110265	-0.0674317	-0.734254	-0.259352	-0.141644	1.80688	1.52147	0.0392753	-0.0202569	-0.171523	-0.435844	0.0754516	2.11063	2.14842	-0.00485762	-0.00579529
0.49	0.0448978	-0.10235	0.0165469	0.929285	0.940055	-0.294364	0.475301	0.142682	-0.165708	-0.700004	0.0746105	-0.0365291	9.23335e-05	-0.157845	-0.189879	-0.133853	-1.27238	-0.311964	-0.0492981	0.000189407	-0.31771	0.122122	-0.0369673	-0.701531	-0.280739	-0.130187	1.80039	1.52099	0.0392753	-0.0202569	-0.191034	-0.427315	0.0615835	2.08947	2.15625	-0.00485762	-0.00579529
0.5	0.0555847	-0.115504	0.00482958	0.928394	0.935026	-0.292894	0.460288	0.164261	-0.150543	-0.758319	0.119464	-0.0365291	9.23335e-05	-0.117619	-0.208239	-0.136877	-1.36347	-0.296375	-0.0492981	0.000189407	-0.334313	0.132861	-0.00837318	-0.662313	-0.304505	-0.114761	1.79132	1.52537	0.0392753	-0.0202569	-0.212994	-0.417541	0.0457784	2.07107	2.16592	-0.00485762	-0.00579529
0.51	0.0650202	-0.126548	-0.00501272	0.92699	0.930591	-0.291889	0.440446	0.1835	-0.134848	-0.807528	0.17006	-0.0365291	9.23335e-05	-0.0720693	-0.220254	-0.132719	-1.44837	-0.279992	-0.0492981	0.000189407	-0.350015	0.141553	0.0169546	-0.617447	-0.329831	-0.0957964	1.78085	1.53493	0.0392753	-0.0202569	-0.236949	-0.40676	0.0282702	2.05526	2.1772	-0.00485762	-0.00579529
0.52	0.0727768	-0.134399	-0.0121839	0.925159	0.926901	-0.29136	0.415779	0.19874	-0.119665	-0.846182	0.222731	-0.0365291	9.23335e-05	-0.0210521	-0.224503	-0.121185	-1.52549	-0.262883	-0.0492981	0.000189407	-0.363943	0.147391	0.0380888	-0.568182	-0.355721	-0.0740812	1.77051	1.54921	0.0392753	-0.0202569	-0.262234	-0.395321	0.00942091	2.0416	2.18973	-0.00485762	-0.00579529
0.53	0.0785663	-0.138344	-0.0163442	0.923021	0.924093	-0.291247	0.386521	0.208826	-0.105598	-0.873463	0.274234	-0.0365291	9.23335e-05	0.0350912	-0.220444	-0.103224	-1.59327	-0.245344	-0.0492981	0.000189407	-0.375398	0.149775	0.0547524	-0.516052	-0.381125	-0.0506793	1.76196	1.56689	0.0392753	-0.0202569	-0.28814	-0.383658	-0.0103274	2.02945	2.20308	-0.00485762	-0.00579529
0.54	0.0822544	-0.138091	-0.0177028	0.920711	0.922243	-0.291455	0.353034	0.213243	-0.0928048	-0.889105	0.321869	-0.0365291	9.23335e-05	0.095488	-0.208542	-0.0808399	-1.65024	-0.227744	-0.0492981	0.000189407	-0.383922	0.148351	0.0673505	-0.462701	-0.405092	-0.0267843	1.75681	1.58583	0.0392753	-0.0202569	-0.314111	-0.37223	-0.0304762	2.01821	2.2168	-0.00485762	-0.00579529
0.55	0.0838097	-0.133754	-0.0169836	0.918367	0.92138	-0.291853	0.315734	0.212071	-0.0810806	-0.893295	0.363466	-0.0365291	9.23335e-05	0.15881	-0.190153	-0.0567685	-1.69518	-0.210375	-0.0492981	0.000189407	-0.389301	0.142991	0.0768389	-0.409715	-0.4269	-0.00356023	1.75631	1.60351	0.0392753	-0.0202569	-0.339888	-0.361464	-0.0504685	2.00751	2.23042	-0.00485762	-0.00579529
0.56	0.083283	-0.125768	-0.0152667	0.916124	0.921491	-0.292303	0.27508	0.20583	-0.0700067	-0.886578	0.397295	-0.0365291	9.23335e-05	0.22345	-0.167241	-0.0340144	-1.72716	-0.193363	-0.0492981	0.000189407	-0.391507	0.133745	0.0845036	-0.35849	-0.446116	0.0179671	1.76122	1.61751	0.0392753	-0.0202569	-0.365532	-0.351711	-0.069683	1.99732	2.24339	-0.00485762	-0.00579529
0.57	0.0807869	-0.114729	-0.0137494	0.914108	0.922536	-0.292688	0.231587	0.195276	-0.0591512	-0.869785	0.421921	-0.0365291	9.23335e-05	0.287734	-0.141995	-0.0153466	-1.74564	-0.176666	-0.0492981	0.000189407	-0.390633	0.12081	0.0917014	-0.310183	-0.462581	0.0369551	1.77174	1.62605	0.0392753	-0.0202569	-0.39133	-0.343218	-0.0874775	1.98794	2.25499	-0.00485762	-0.00579529
0.58	0.0764822	-0.101294	-0.0134898	0.912424	0.924453	-0.292936	0.185855	0.181203	-0.0482651	-0.843944	0.436085	-0.0365291	9.23335e-05	0.350123	-0.116447	-0.00288472	-1.7504	-0.160134	-0.0492981	0.000189407	-0.386848	0.104494	0.0996164	-0.265684	-0.476342	0.0527469	1.78752	1.6283	0.0392753	-0.0202569	-0.417627	-0.336126	-0.103294	1.97985	2.26432	-0.00485762	-0.00579529
0.59	0.070554	-0.0860856	-0.015205	0.911152	0.92718	-0.293024	0.13855	0.164321	-0.037422	-0.810202	0.438609	-0.0365291	9.23335e-05	0.409319	-0.0922122	0.00213026	-1.74154	-0.143601	-0.0492981	0.000189407	-0.380382	0.0852153	0.109087	-0.225632	-0.487576	0.0648633	1.80782	1.62441	0.0392753	-0.0202569	-0.444664	-0.330464	-0.116778	1.97354	2.27032	-0.00485762	-0.00579529
0.6	0.0632027	-0.0696475	-0.0191679	0.910334	0.930653	-0.292955	0.0903779	0.14521	-0.0270731	-0.769758	0.428419	-0.0365291	9.23335e-05	0.464311	-0.0703363	-0.000628782	-1.71937	-0.12696	-0.0492981	0.000189407	-0.371525	0.0634961	0.120502	-0.190412	-0.496535	0.0730299	1.83165	1.61527	0.0392753	-0.0202569	-0.47248	-0.32614	-0.12787	1.96938	2.27195	-0.00485762	-0.00579529
0.61	0.0546427	-0.0524352	-0.0252041	0.909974	0.93481	-0.292759	0.042054	0.124336	-0.0180049	-0.723837	0.404654	-0.0365291	9.23335e-05	0.514339	-0.0512907	-0.0106855	-1.68429	-0.110219	-0.0492981	0.000189407	-0.360619	0.0399638	0.133787	-0.160171	-0.503508	0.0772031	1.85793	1.60226	0.0392753	-0.0202569	-0.500897	-0.32294	-0.136798	1.96752	2.26842	-0.00485762	-0.00579529
0.62	0.0451063	-0.034843	-0.0327682	0.910041	0.93957	-0.292487	-0.00573986	0.102119	-0.0112066	-0.673686	0.366849	-0.0365291	9.23335e-05	0.558837	-0.0350522	-0.0269491	-1.63673	-0.0934953	-0.0492981	0.000189407	-0.348038	0.015342	0.14846	-0.134837	-0.508811	0.0776069	1.88563	1.58683	0.0392753	-0.0202569	-0.529574	-0.320528	-0.144016	1.96788	2.25949	-0.00485762	-0.00579529
0.63	0.0348353	-0.0172557	-0.0410644	0.910487	0.944827	-0.292214	-0.0523793	0.079013	-0.00768524	-0.620611	0.315142	-0.0365291	9.23335e-05	0.597358	-0.0212363	-0.0479005	-1.57705	-0.0769856	-0.0492981	0.000189407	-0.334172	-0.00956452	0.163738	-0.114154	-0.512769	0.0747256	1.91383	1.57028	0.0392753	-0.0202569	-0.558091	-0.318471	-0.150099	1.97018	2.24572	-0.00485762	-0.00579529
0.64	0.0240658	-0.000103011	-0.049188	0.911261	0.950457	-0.292013	-0.0973051	0.0555902	-0.00826434	-0.566024	0.250455	-0.0365291	9.23335e-05	0.629533	-0.00924986	-0.0717347	-1.50559	-0.060903	-0.0492981	0.000189407	-0.3194	-0.0338856	0.178685	-0.0977404	-0.515696	0.0692454	1.94182	1.55369	0.0392753	-0.0202569	-0.586031	-0.316282	-0.155656	1.97406	2.22843	-0.00485762	-0.00579529
0.65	0.0130147	0.0161064	-0.056277	0.912311	0.956308	-0.291948	-0.140011	0.0325874	-0.0134024	-0.511494	0.174593	-0.0365291	9.23335e-05	0.655052	0.0015546	-0.096472	-1.42273	-0.0454195	-0.0492981	0.000189407	-0.304088	-0.0567063	0.192383	-0.0851423	-0.517882	0.0619569	1.96906	1.53789	0.0392753	-0.0202569	-0.613034	-0.313482	-0.161264	1.97912	2.20949	-0.00485762	-0.00579529
0.66	0.00187796	0.0307808	-0.0616568	0.913583	0.962194	-0.292065	-0.180012	0.010893	-0.0230712	-0.458781	0.090246	-0.0365291	9.23335e-05	0.673676	0.011735	-0.12007	-1.32897	-0.0306355	-0.0492981	0.000189407	-0.288571	-0.0771053	0.204089	-0.0758897	-0.519584	0.0536459	1.99523	1.52353	0.0392753	-0.0202569	-0.638817	-0.309657	-0.167415	1.98506	2.19098	-0.00485762	-0.00579529
0.67	-0.00915085	0.0432702	-0.064959	0.915023	0.967902	-0.292389	-0.21684	-0.00854214	-0.0367177	-0.409825	0.000840991	-0.0365291	9.23335e-05	0.685248	0.0216332	-0.14059	-1.22507	-0.0165855	-0.0492981	0.000189407	-0.273169	-0.0942217	0.213377	-0.0695353	-0.521026	0.0450001	2.02015	1.51102	0.0392753	-0.0202569	-0.663151	-0.304504	-0.174462	1.99172	2.17462	-0.00485762	-0.00579529
0.68	-0.0198603	0.0529318	-0.0661884	0.916579	0.973211	-0.292914	-0.250049	-0.0248497	-0.0533317	-0.366686	-0.0897149	-0.0365291	9.23335e-05	0.689721	0.0312892	-0.15641	-1.11226	-0.00328245	-0.0492981	0.000189407	-0.258204	-0.10734	0.220195	-0.0656825	-0.522402	0.0365456	2.04375	1.50054	0.0392753	-0.0202569	-0.68584	-0.297866	-0.182575	1.99903	2.16156	-0.00485762	-0.00579529
